<?xml version="1.0" encoding="utf-8"?>
<!-- Generator: Adobe Illustrator 16.0.0, SVG Export Plug-In . SVG Version: 6.00 Build 0)  -->
<!DOCTYPE svg PUBLIC "-//W3C//DTD SVG 1.1//EN" "http://www.w3.org/Graphics/SVG/1.1/DTD/svg11.dtd">
<svg version="1.1" id="Layer_1" xmlns="http://www.w3.org/2000/svg" xmlns:xlink="http://www.w3.org/1999/xlink" x="0px" y="0px"
	 width="146.189px" height="146.189px" viewBox="0 0 146.189 146.189" enable-background="new 0 0 146.189 146.189"
	 xml:space="preserve">
<g>
	<circle fill="#F5AD00" cx="73.094" cy="73.095" r="73.094"/>
	<g>
		<defs>
			<circle id="SVGID_3_" cx="73.094" cy="73.095" r="73.094"/>
		</defs>
		<clipPath id="SVGID_2_">
			<use xlink:href="#SVGID_3_"  overflow="visible"/>
		</clipPath>
		<g clip-path="url(#SVGID_2_)">
			<path fill="#FFFFFF" d="M64.146,57.426c0,7.776,6.327,14.103,14.104,14.103c7.776,0,14.103-6.326,14.103-14.103
				S86.025,43.322,78.25,43.322C70.473,43.322,64.146,49.649,64.146,57.426z M84.916,57.426c0,3.676-2.99,6.667-6.666,6.667
				c-3.676,0-6.666-2.991-6.666-6.667s2.99-6.667,6.666-6.667C81.925,50.759,84.916,53.75,84.916,57.426z"/>
			<path fill="#FFFFFF" d="M91.54,76.606c-0.708-0.073-17.443-1.71-26.074,6.071c-3.357,3.027-5.132,7.15-5.132,11.926v0.99
				c-10.441-6.158-17.465-17.518-17.465-30.492c0-19.508,15.872-35.379,35.38-35.379v-7.438c-23.61,0-42.818,19.208-42.818,42.816
				c0,23.61,19.208,42.818,42.818,42.818v-7.438c-3.647,0-7.166-0.555-10.479-1.584v-4.295c0-2.682,0.872-4.773,2.666-6.395
				c4.038-3.648,11.908-4.389,17-4.366l-0.01,25.02c0,2.683-0.872,4.775-2.667,6.397c-4.035,3.646-11.936,4.39-16.988,4.363v-7.108
				h-7.437v13.998l3.334,0.347c0.217,0.022,1.939,0.191,4.472,0.191c5.73,0,15.607-0.867,21.591-6.262
				c3.357-3.026,5.132-7.15,5.132-11.925l0.012-31.911L91.54,76.606z"/>
		</g>
	</g>
</g>
</svg>
